<?xml version="1.0" encoding="utf-8"?>
<!-- Generator: Adobe Illustrator 22.1.0, SVG Export Plug-In . SVG Version: 6.00 Build 0)  -->
<svg version="1.1" id="Layer_1" xmlns="http://www.w3.org/2000/svg" xmlns:xlink="http://www.w3.org/1999/xlink" x="0px" y="0px"
	 viewBox="0 0 954.9 180.9" style="enable-background:new 0 0 954.9 180.9;" xml:space="preserve">
<style type="text/css">
	.st0{fill:#008F91;}
	.st1{fill:#008F91;}
	.st2{fill:#008F91;}
	.st3{fill:#008F91;}
	.st4{fill:#008F91;}
	.st5{fill:#008F91;}
	.st6{fill:#008F91;}
</style>
<title>ForSite[Blue]</title>
<path class="st0" d="M417.5,73.7c-4.7-1.2-9.1-3.1-13.1-5.9l6-13.6c3.6,2.2,7.4,4,11.4,5.1c4,1.2,8.1,1.8,12.3,1.8
	c4.2,0,7.4-0.6,9.6-1.7s3.3-2.8,3.3-4.9c0-1.9-1-3.4-3-4.6s-5.8-2.3-11.4-3.6c-6.9-1.5-12.4-3.2-16.3-5.3c-3.9-2-6.7-4.4-8.2-7.1
	c-1.7-3.1-2.5-6.6-2.4-10.1c-0.1-4.4,1.3-8.7,3.8-12.2c2.8-3.8,6.5-6.7,10.8-8.5c5.1-2.1,10.5-3.2,16-3.1c5.2,0,10.5,0.7,15.5,2.3
	c4.3,1.1,8.2,3.1,11.7,5.8l-5.9,13.6c-6.2-4.4-13.6-6.9-21.2-6.9c-3-0.1-6,0.6-8.6,2.1c-2,1.1-3.2,3.1-3.3,5.4
	c-0.1,1.2,0.4,2.4,1.1,3.3c1.2,1.1,2.7,2,4.3,2.5c3,1.1,6.2,1.9,9.3,2.5c6.7,1.5,12,3.2,15.9,5.3s6.6,4.5,8.2,7.2
	c1.7,3,2.5,6.4,2.4,9.8c0,7.3-2.8,13-8.4,17.1c-5.6,4.1-13.5,6.1-23.6,6.1C428.4,75.9,422.9,75.2,417.5,73.7z"/>
<path class="st0" d="M487.9,75V1h52.6v14.9h-33.8V30h31.7v14.8h-31.7v15.3h33.8V75H487.9z"/>
<path class="st0" d="M561.6,75V1h19.3v58.4h31.5V75H561.6z"/>
<path class="st0" d="M632.7,75V1H652v58.4h31.5V75H632.7z"/>
<path class="st0" d="M703.7,75V1h52.6v14.9h-33.8V30h31.7v14.8h-31.7v15.3h33.8V75H703.7z"/>
<path class="st0" d="M844,75h-21.2L810,51.3c-1.6-2.7-4.2-4.1-7.7-4.1h-5.9V75h-19V1h35.3c9,0,15.7,1.9,20.2,5.8s6.8,9.5,6.8,16.9
	c0.2,5.1-1.5,10.2-4.6,14.2c-3.3,4-7.9,6.8-13,7.8c4.3,0.9,7.7,3.7,10.2,8.3L844,75z M818.9,30.8c1.8-1.3,2.8-3.5,2.8-6.5
	s-0.9-5.2-2.8-6.7c-1.9-1.3-4.9-2-9.2-2h-13.5v17.2h13.4C814,32.8,817,32.1,818.9,30.8L818.9,30.8z"/>
<path class="st0" d="M407.1,105.9h35.8c8.2,0,14.6,2.1,19.1,6.3c4.5,4.2,6.8,10,6.8,17.4c0,7.3-2.3,13.1-6.9,17.3
	s-10.9,6.3-19.1,6.3h-16.5V180H407v-74.1H407.1z M440.3,138.7c3.6,0,6.2-0.7,7.9-2.2s2.6-3.8,2.6-6.8s-0.9-5.4-2.6-6.9
	s-4.4-2.3-7.9-2.3h-13.9v18.2H440.3z"/>
<path class="st0" d="M504.9,176.2c-5.5-3-10-7.6-12.9-13.2c-6-12.7-6-27.5,0-40.2c2.9-5.6,7.4-10.2,12.9-13.2
	c5.6-3.1,12.1-4.6,19.7-4.6s14.1,1.5,19.7,4.6c5.5,3,10,7.6,12.8,13.2c6,12.7,6,27.5,0,40.2c-2.9,5.6-7.4,10.2-12.9,13.2
	c-6,3.2-12.8,4.8-19.6,4.7C517.1,180.9,510.5,179.4,504.9,176.2z M537.7,160.2c3.1-3.9,4.7-9.7,4.7-17.3s-1.6-13.3-4.8-17.2
	c-3.2-3.9-7.5-5.9-13.1-5.9s-9.9,1.9-13.1,5.8c-3.1,3.9-4.7,9.6-4.7,17.3s1.6,13.4,4.7,17.3c3.1,3.9,7.5,5.9,13.1,5.9
	S534.6,164.1,537.7,160.2z"/>
<path class="st0" d="M650.6,180h-21.2l-12.8-23.6c-1.6-2.7-4.2-4.1-7.7-4.1H603V180h-19v-74h35.3c9,0,15.7,1.9,20.2,5.8
	s6.8,9.5,6.8,16.9c0.2,5.1-1.5,10.2-4.6,14.2c-3.3,4-7.9,6.8-13,7.8c4.3,0.9,7.7,3.7,10.2,8.3L650.6,180z M625.5,135.8
	c1.9-1.3,2.8-3.5,2.8-6.5s-0.9-5.2-2.8-6.7c-1.9-1.3-4.9-2-9.2-2h-13.4v17.2h13.4C620.6,137.8,623.6,137.1,625.5,135.8z"/>
<path class="st0" d="M683.9,180v-58.4h-22.1V106h63.8v15.6h-22.2V180H683.9z"/>
<path class="st0" d="M791.3,180l-6.6-15.3h-32.8l-6.6,15.3h-19.4l34.5-74h15.3l34.7,74H791.3z M758.1,150.1h20.4l-10.2-23.7
	L758.1,150.1z"/>
<path class="st0" d="M825.9,180v-74h19.4v58.4h31.5V180H825.9z"/>
<path class="st0" d="M906.5,178.7c-4.7-1.2-9.1-3.1-13.1-5.9l6-13.6c3.6,2.2,7.4,4,11.4,5.1c4,1.2,8.1,1.8,12.3,1.8s7.4-0.6,9.6-1.7
	c2.2-1.2,3.3-2.8,3.3-4.9c0-1.9-1-3.4-3-4.6s-5.8-2.3-11.4-3.6c-6.9-1.5-12.4-3.2-16.3-5.3c-3.9-2-6.7-4.4-8.2-7.1
	c-1.7-3.1-2.5-6.6-2.4-10.1c-0.1-4.4,1.3-8.7,3.8-12.2c2.8-3.8,6.5-6.7,10.8-8.5c5.1-2.1,10.5-3.2,16-3.1c5.2,0,10.5,0.7,15.5,2.3
	c4.3,1.1,8.2,3.1,11.7,5.8l-5.9,13.6c-6.2-4.4-13.6-6.9-21.2-6.9c-3-0.1-6,0.6-8.6,2c-2,1.1-3.2,3.1-3.3,5.4
	c-0.1,1.2,0.4,2.4,1.2,3.3c1.2,1.1,2.7,2,4.3,2.5c3,1.1,6.2,1.9,9.3,2.5c6.7,1.5,12,3.2,15.9,5.3s6.6,4.5,8.2,7.2
	c1.7,3,2.5,6.4,2.4,9.8c0,7.3-2.8,13-8.4,17.1s-13.5,6.1-23.6,6.1C917.3,180.9,911.8,180.2,906.5,178.7z"/>
<g>
	<g>
		<path class="st1" d="M92.6,55.4L92.6,55.4z"/>
		<path class="st0" d="M93.5,64.8L93.5,64.8C93.6,64.8,93.6,64.8,93.5,64.8c28.4,2.9,51.4-6.5,68.7-28.5l3.2,2.2
			c-27.2,38.8-71.5,30.6-71.5,30.6L93.5,64.8z"/>
		<path class="st1" d="M160,34.9c-2.5-1.7-4.9-3.5-7.3-5.1L160,34.9z"/>
		<path class="st0" d="M92.7,56.5L45.8,94.9L42,91.4l50-43.9C92.2,50.9,92.5,53.8,92.7,56.5z"/>
		<path class="st0" d="M162.5,36.6l-2.6-1.8C160.8,35.5,161.7,36,162.5,36.6L162.5,36.6z"/>
		<path class="st2" d="M160,34.9c-2.5-1.7-4.9-3.5-7.3-5.1L160,34.9z"/>
		<path class="st3" d="M266.8,5.4c-1.5,0.6-3,1.1-4.4,1.7c-0.5,0.2-0.9,0.4-1.4,0.6c-6.1,2.7-11.6,6.1-16.3,10.3
			c-0.6,0.6-1.3,1.2-1.9,1.8c-0.1,0.1-0.2,0.1-0.2,0.2l-0.1,0.1c-0.1,0.1-0.1,0.1-0.2,0.2c-0.1,0.1-0.1,0.1-0.2,0.2
			c-0.1,0.1-0.2,0.2-0.2,0.3c-3.5,3.8-9.7,12.4-17.4,23.4c-5,7.1-11.4,16.6-18.6,27.1c-1,1.5-2.1,3.1-3.2,4.7
			c-1.2,1.7-2.4,3.5-3.6,5.2c-0.2,0.3-0.5,0.7-0.7,1c0,0,0,0,0,0.1c-0.7,1-1.3,2-2,3s-1.4,2-2,3c-0.1,0.1-0.2,0.3-0.3,0.4
			c-0.5,0.7-1,1.4-1.5,2.2c-0.3,0.4-0.6,0.8-0.9,1.3c-0.2,0.3-0.4,0.6-0.6,0.9c0,0.1-0.1,0.1-0.1,0.2c-0.5,0.8-1.1,1.6-1.6,2.4
			c-0.1,0.1-0.1,0.1-0.1,0.2c-0.2,0.3-0.4,0.6-0.6,0.9c-0.5,0.7-1.1,1.5-1.6,2.3c-0.2,0.3-0.4,0.6-0.6,0.8c0,0.1-0.1,0.1-0.1,0.2
			c-0.4,0.6-0.8,1.2-1.2,1.8c0,0.1-0.1,0.1-0.1,0.2c-0.2,0.3-0.4,0.5-0.6,0.8c-3.1,4.4-6.2,8.7-9.4,13.1c-0.4,0.7-1,1.3-1.4,1.9
			c-0.1,0.1-0.2,0.4-0.4,0.5c-0.4,0.7-1,1.3-1.4,1.9c-0.6,0.8-1.2,1.7-1.8,2.5c-0.2,0.3-0.5,0.6-0.7,0.9c-0.4,0.5-0.7,1-1.1,1.4
			c-0.4,0.6-0.8,1.1-1.3,1.7c-2.4,3.2-4.8,6.4-7.3,9.5c-0.4,0.6-0.9,1.1-1.3,1.7c-0.2,0.3-0.5,0.6-0.7,0.9c-1,1.3-2,2.5-3,3.8
			l-0.1,0.1c-0.4,0.5-0.7,0.9-1.1,1.4c-0.1,0.1-0.1,0.1-0.2,0.2c-0.4,0.5-0.8,1-1.2,1.5c0,0.1-0.1,0.1-0.1,0.1
			c-5.4,6.5-10.5,12.3-15.3,17l-0.7,0.7l0,0c-0.2,0.2-0.4,0.4-0.6,0.6l-0.1,0.1c-0.6,0.6-1.3,1.2-1.8,1.8c-0.4,0.4-0.8,0.7-1.2,1.1
			l-0.1,0.1c-0.4,0.3-0.7,0.6-1.1,0.9c-0.2,0.1-0.3,0.2-0.5,0.4c-1.2,0.9-2.3,1.9-3.5,2.8c-0.1,0.1-0.2,0.2-0.3,0.3
			c-0.4,0.2-0.9,0.4-1.3,0.7c-9.9,4.9-20.9,7.9-33,7.7c-42.6-0.5-81-34.1-85.6-75.3C1.4,56.7,29.8,15,73.8,5c19-4.3,37-2.6,53.5,7.5
			c11.2,6.8,21.7,14.6,32.4,22l2.6,1.8l-0.1,0.1l0,0l0,0c-0.9,1.2-1.9,2.3-2.8,3.4c-1,1.1-2,2.2-3,3.3c-2.6,2.7-5.2,5.1-8,7.3
			c-10,7.8-21.3,12.6-34,14.3c-1.4,0.2-2.8,0.3-4.2,0.4c-3.4,0.3-6.9,0.3-10.5,0.2c-1.1,0-2.2-0.1-3.4-0.2c-0.9-0.1-1.7-0.1-2.6-0.2
			c0,0,0,0-0.1,0h-0.1c0-2.7-0.5-5.5-0.7-8.3v-0.3c-0.3-2.9-0.5-5.8-0.8-8.7L42,91.4l0,0l3.9,3.5l45.8,40.4
			c0.7-6.5,1.3-10.9,1.8-15.7c9.4-1,19.6,0.4,27.5-3.2c0.1-0.1,0.1-0.1,0.2-0.1c8-3.8,16-8.2,23.5-13.2c5.8-3.8,11.3-7.9,16.4-12.4
			c14.4-12.9,27.7-26.8,41.2-40.6c12.9-13.2,26.2-25.7,42-35.5c0.9-0.6,1.8-1.1,2.7-1.6C253.3,9.3,260.4,7,266.8,5.4z"/>
		<path class="st4" d="M267.7,5.2c-0.1,0-0.2,0.1-0.2,0.1c-0.2,0.1-0.4,0.1-0.7,0.2l0,0c-0.5,0.2-1.1,0.4-1.6,0.6
			c-0.3,0.1-0.6,0.2-1,0.4c-0.5,0.2-1.1,0.4-1.6,0.6c-0.1,0.1-0.3,0.1-0.4,0.2c-0.4,0.2-0.8,0.3-1.2,0.5c0.5-0.2,0.9-0.4,1.4-0.6
			c1.4-0.6,2.9-1.1,4.3-1.6l0.1-0.1C267.1,5.3,267.4,5.3,267.7,5.2z"/>
		<path class="st0" d="M278.6,179.9c-9-0.5-17.9-3-25.8-7.3c-12.9-7.1-24.9-15.9-38.3-24.9l0,0c0.9-1.2,1.9-2.3,2.8-3.4
			c0.6-0.7,1.1-1.3,1.7-1.9c0.9-1,1.9-2,2.8-2.9c0.5-0.5,1-1,1.6-1.5c1.1-1,2.1-1.9,3.2-2.8c9.8-8.2,20.9-13.3,33.3-15.3
			c1-0.2,2.1-0.3,3.1-0.4s2-0.2,3-0.3c5.2-0.4,10.7-0.3,16.4,0.3c0,0,0,0,0.1,0l0,0h0.1v-0.1l0,0c0.3,2.4,0.6,5,0.9,8
			c0.2,2.4,0.5,5.1,0.9,8.2v0.1L334.1,92l-49.5-44c-0.7,6.2-1.2,10.7-1.7,15.6c-8.4,0.8-16.8,0.7-24.8,2.4
			C237,70.9,221.9,85.5,207,99.8c-19.9,19.1-38.6,39.5-59.4,57.7c-5.1,4.4-10.7,8.2-16.5,11.5c-1.5,0.9-3.1,1.7-4.6,2.6
			c0.1-0.1,0.3-0.2,0.4-0.3c1.2-0.9,2.3-1.9,3.5-2.8c0.1-0.1,0.3-0.2,0.4-0.3c0.4-0.3,0.7-0.6,1.1-0.9l0.1-0.1
			c0.4-0.4,0.8-0.7,1.2-1.1c0,0,0.1,0,0.1-0.1c0.6-0.6,1.2-1.1,1.8-1.8l0.1-0.1c0.2-0.2,0.4-0.4,0.6-0.6l0,0l0.7-0.7
			c4.8-4.7,9.9-10.5,15.3-17l0.1-0.1c0.4-0.5,0.8-1,1.2-1.5c0.1-0.1,0.1-0.1,0.2-0.2c0.4-0.4,0.7-0.9,1.1-1.4c0-0.1,0.1-0.1,0.1-0.1
			c1-1.2,2-2.5,3-3.8c0.2-0.3,0.5-0.6,0.7-0.9c0.4-0.6,0.9-1.1,1.3-1.7c2.4-3.1,4.8-6.2,7.3-9.5c0.4-0.6,0.8-1.1,1.3-1.7
			c0.4-0.5,0.7-0.9,1.1-1.4c0.2-0.3,0.5-0.6,0.7-0.9c0.6-0.8,1.2-1.7,1.8-2.5c0.4-0.6,1-1.2,1.4-1.9c0.1-0.1,0.2-0.4,0.4-0.5
			c0.4-0.6,1-1.2,1.4-1.9c3.2-4.3,6.3-8.7,9.4-13.1c0.2-0.3,0.4-0.6,0.6-0.8c0-0.1,0.1-0.1,0.1-0.2c0.4-0.6,0.8-1.2,1.2-1.8
			c0-0.1,0.1-0.1,0.1-0.2c0.2-0.3,0.4-0.5,0.6-0.8c0.5-0.7,1.1-1.5,1.6-2.3c0.2-0.3,0.4-0.6,0.6-0.9c0-0.1,0.1-0.1,0.1-0.2
			c0.5-0.8,1.1-1.6,1.6-2.4c0.1-0.1,0.1-0.1,0.1-0.2c0.2-0.3,0.4-0.6,0.6-0.9c0.3-0.4,0.6-0.8,0.9-1.3c0.5-0.7,1-1.4,1.5-2.2
			c0.1-0.1,0.2-0.3,0.3-0.4c0.7-1,1.4-2,2-3c0.7-1,1.4-2,2-3c0,0,0,0,0-0.1c0.2-0.3,0.5-0.7,0.7-1c1.2-1.8,2.4-3.5,3.6-5.2
			c1.1-1.6,2.2-3.2,3.2-4.7c7.2-10.5,13.6-20,18.6-27.1c7.7-11,13.9-19.6,17.4-23.4c0.1-0.1,0.2-0.2,0.2-0.3
			c0.1-0.1,0.1-0.1,0.2-0.2c0.1-0.1,0.1-0.2,0.2-0.2l0.1-0.1c0.1,0,0.1-0.1,0.2-0.1c0,0,0.1,0,0.1-0.1c0.6-0.6,1.3-1.2,1.9-1.8
			c4.7-4.2,10.2-7.6,16.2-10.3c0.4-0.2,0.9-0.4,1.3-0.6c0.1-0.1,0.3-0.1,0.4-0.2c0.5-0.2,1.1-0.4,1.6-0.6c0.3-0.1,0.6-0.2,1-0.4
			c0.5-0.2,1-0.4,1.5-0.5c0,0,0.1,0,0.1-0.1l0,0c0.2-0.1,0.4-0.2,0.7-0.2c5.8-1.4,11.6-2.1,17.3-2.1c39.8,0,76.3,31.6,84,71.3
			C380,131,336,182.6,278.6,179.9z"/>
		<path class="st5" d="M260,119.8c1-0.2,2.1-0.3,3.1-0.4C262.1,119.5,261.1,119.7,260,119.8z"/>
		<path class="st5" d="M282.8,119.3h-0.1l0,0l0,0C282.6,119.3,282.6,119.3,282.8,119.3L282.8,119.3L282.8,119.3z"/>
		<path class="st5" d="M126.9,171.2c1.1-1,2.3-1.9,3.5-2.8C129.2,169.4,128,170.3,126.9,171.2z"/>
		<path class="st5" d="M135.2,164.2c0.2-0.2,0.4-0.4,0.6-0.6C135.6,163.8,135.5,164,135.2,164.2z"/>
		<path class="st5" d="M151.8,145.9c0.1-0.1,0.1-0.1,0.2-0.2C151.9,145.7,151.9,145.8,151.8,145.9c-5.3,6.5-10.4,12.3-15.2,17
			C141.3,158.2,146.4,152.4,151.8,145.9z"/>
		<path class="st5" d="M153.3,144c0.4-0.5,0.8-1,1.2-1.4C154.1,143.1,153.7,143.5,153.3,144l-0.1,0.1
			C153.2,144.1,153.2,144.1,153.3,144z"/>
		<path class="st5" d="M166.8,126.7c0.5-0.6,0.9-1.2,1.3-1.8C167.7,125.5,167.3,126.1,166.8,126.7c-2.4,3.2-4.8,6.3-7.2,9.4
			c-0.4,0.6-0.9,1.1-1.3,1.7c-0.2,0.3-0.5,0.6-0.7,0.9c0.2-0.3,0.4-0.6,0.6-0.8c0.4-0.6,0.9-1.1,1.3-1.7
			C161.9,133.1,164.4,129.9,166.8,126.7z"/>
		<path class="st5" d="M184.2,102.8c0.2-0.3,0.4-0.6,0.6-0.9C184.6,102.1,184.4,102.4,184.2,102.8c-3,4.3-6.2,8.7-9.3,13
			c-0.4,0.7-1,1.3-1.4,1.9c-0.1,0.1-0.2,0.4-0.4,0.5c-0.4,0.7-1,1.3-1.4,1.9c-0.6,0.8-1.2,1.7-1.8,2.5c-0.2,0.3-0.5,0.6-0.7,0.9
			c0.2-0.3,0.4-0.6,0.6-0.9c0.6-0.8,1.2-1.7,1.8-2.5c0.5-0.7,1-1.3,1.4-1.9c0.1-0.1,0.2-0.4,0.4-0.5c0.4-0.7,1-1.3,1.4-1.9
			C177.9,111.5,181.1,107.2,184.2,102.8z"/>
		<path class="st5" d="M191.5,92.2c0.3-0.4,0.6-0.9,0.9-1.3C192.2,91.3,191.9,91.7,191.5,92.2c-0.1,0.2-0.3,0.5-0.6,0.8L191.5,92.2z
			"/>
		<path class="st5" d="M196.2,85.3c0.7-1,1.4-2,2.1-3C197.7,83.3,197,84.3,196.2,85.3c-0.6,0.9-1.3,1.9-2,2.9
			C194.9,87.3,195.6,86.3,196.2,85.3z"/>
		<path class="st5" d="M223.5,137.9c1.1-1,2.1-1.9,3.2-2.8C225.6,136,224.5,136.9,223.5,137.9z"/>
		<path class="st5" d="M224.5,44.2c-5,7.1-11.4,16.6-18.6,27.1c-1,1.5-2.1,3.1-3.2,4.7c-1.2,1.7-2.4,3.5-3.6,5.2
			c-0.2,0.3-0.5,0.7-0.7,1c0.2-0.3,0.4-0.6,0.6-0.9c1.2-1.8,2.4-3.5,3.6-5.2c1.1-1.6,2.1-3.2,3.2-4.7
			C213.1,60.9,219.5,51.4,224.5,44.2c7.7-11,13.9-19.6,17.4-23.4C238.5,24.6,232.2,33.2,224.5,44.2z"/>
		<path class="st5" d="M267.5,5.3c-0.2,0.1-0.4,0.1-0.7,0.2c0.1-0.1,0.3-0.1,0.4-0.2C267.3,5.3,267.4,5.3,267.5,5.3z"/>
		<path class="st5" d="M282.6,119.3L282.6,119.3C282.6,119.4,282.6,119.4,282.6,119.3c-22.1-2.2-40.6,3-55.9,15.8
			C242,122.2,260.5,117.1,282.6,119.3z"/>
		<path class="st2" d="M162.5,36.6c-0.7-0.5-1.5-1-2.2-1.5C161,35.5,161.8,36.1,162.5,36.6z"/>
		<path class="st6" d="M334.3,91.9l-49.7,43.7c-0.2-1.7-0.3-3.1-0.5-4.4c-0.1-1.3-0.3-2.5-0.4-3.9l46.6-39L334.3,91.9z"/>
		<path class="st6" d="M282.8,119.3h-0.1c-5.7-0.6-11.2-0.7-16.5-0.2c-1,0.1-2,0.2-3,0.3c-1.1,0.1-2.1,0.3-3.1,0.4
			c-12.5,2-23.5,7.1-33.3,15.3c-1.1,0.9-2.1,1.9-3.2,2.8c-0.5,0.5-1,1-1.6,1.5c-1,0.9-1.9,1.9-2.8,2.9c-0.6,0.6-1.2,1.3-1.7,1.9
			c-1,1.1-1.9,2.2-2.8,3.4l-0.3-0.2l-2.8-1.8c27.2-38.8,71-30.6,71-30.6L282.8,119.3L282.8,119.3z"/>
	</g>
	<path class="st5" d="M135.1,164.2c-0.7,0.7-1.3,1.2-1.9,1.8C133.9,165.4,134.5,164.8,135.1,164.2z"/>
	<path class="st5" d="M132,167.2c0.2-0.1,0.4-0.4,0.7-0.5C132.4,166.8,132.2,167,132,167.2C131.9,167.2,132,167.2,132,167.2z"/>
	<path class="st1" d="M132,167.2c0.2-0.1,0.4-0.4,0.7-0.5C132.4,166.8,132.2,167,132,167.2C131.9,167.2,132,167.2,132,167.2z"/>
</g>
</svg>
